<svg width="50" height="50" viewBox="0 0 50 50" fill="none" xmlns="http://www.w3.org/2000/svg">
<path d="M31.9417 18.0583C33.7464 18.0042 35.459 17.2492 36.7164 15.9535C37.9739 14.6578 38.6771 12.9232 38.6771 11.1177C38.6771 9.31217 37.9739 7.57764 36.7164 6.28194C35.459 4.98623 33.7464 4.23124 31.9417 4.17708H18.0583C16.2536 4.23124 14.541 4.98623 13.2836 6.28194C12.0262 7.57764 11.3229 9.31217 11.3229 11.1177C11.3229 12.9232 12.0262 14.6578 13.2836 15.9535C14.541 17.2492 16.2536 18.0042 18.0583 18.0583C16.2378 18.0899 14.5026 18.8352 13.2263 20.1338C11.95 21.4324 11.2349 23.1803 11.2349 25.001C11.2349 26.8218 11.95 28.5697 13.2263 29.8683C14.5026 31.1669 16.2378 31.9122 18.0583 31.9437C16.2467 31.9881 14.5243 32.739 13.2587 34.0359C11.9931 35.3329 11.2847 37.0733 11.2847 38.8854C11.2847 40.6976 11.9931 42.4379 13.2587 43.7349C14.5243 45.0319 16.2467 45.7827 18.0583 45.8271C19.8994 45.826 21.6647 45.094 22.9664 43.792C24.268 42.4899 24.9995 40.7244 25 38.8833V18.0583H31.9417Z" fill="black"/>
<path d="M31.9417 31.9417C35.7754 31.9417 38.8833 28.8338 38.8833 25C38.8833 21.1662 35.7754 18.0583 31.9417 18.0583C28.1079 18.0583 25 21.1662 25 25C25 28.8338 28.1079 31.9417 31.9417 31.9417Z" fill="black"/>
</svg>
