<svg width="50" height="50" viewBox="0 0 50 50" fill="none" xmlns="http://www.w3.org/2000/svg">
<path d="M10.5833 0H12.8375V2.22708H14.9V0H17.1542V6.74167H14.9V4.48542H12.8375V6.74167H10.5854V0H10.5833Z" fill="black"/>
<path d="M20.1167 2.23542H18.1333V0H24.3562V2.23542H22.3708V6.74167H20.1167V2.23542Z" fill="black"/>
<path d="M25.3438 0H27.6938L29.1396 2.36875L30.5833 0H32.9333V6.74167H30.6896V3.4L29.1396 5.79792H29.1L27.5479 3.40208V6.74167H25.3438V0Z" fill="black"/>
<path d="M34.0542 0H36.3104V4.51458H39.4771V6.74375H34.0542V0Z" fill="black"/>
<path fill-rule="evenodd" clip-rule="evenodd" d="M10.5125 45.9833L6.25 9.82709H43.75L39.4854 45.9792L24.9792 50L10.5125 45.9833ZM19.1312 26.1917L18.7271 21.65H35.6958L36.0917 17.2167H13.8833L15.0792 30.6271H30.4479L29.9333 36.3771L24.9875 37.7146H24.9833L20.0458 36.3813L19.7292 32.8458H15.275L15.8958 39.8083L24.9792 42.3292L34.0771 39.8083L35.1854 27.3833L35.2937 26.1938H19.1312V26.1917Z" fill="black"/>
</svg>
