<svg width="50" height="50" viewBox="0 0 50 50" fill="none" xmlns="http://www.w3.org/2000/svg">
<path d="M3.125 3.125V46.875H46.875V3.125H3.125ZM26.9344 37.2453C26.9344 41.5031 24.4344 43.4469 20.7922 43.4469C17.5016 43.4469 15.5969 41.7484 14.6203 39.6875L17.9703 37.6656C18.6156 38.8078 19.2016 39.775 20.6172 39.775C21.9641 39.775 22.8234 39.2469 22.8234 37.1875V23.2125H26.9344V37.2453ZM36.6594 43.4469C32.8406 43.4469 30.3703 41.6312 29.1687 39.2469L32.5188 37.3141C33.3984 38.75 34.55 39.8141 36.5719 39.8141C38.2703 39.8141 39.3656 38.9641 39.3656 37.7828C39.3656 36.3766 38.2516 35.8781 36.3672 35.0484L35.3422 34.6094C32.3734 33.35 30.4109 31.7578 30.4109 28.4078C30.4109 25.3219 32.7641 22.9781 36.4266 22.9781C39.0438 22.9781 40.9188 23.8859 42.2672 26.2688L39.0641 28.3203C38.3609 27.0609 37.5984 26.5625 36.4172 26.5625C35.2172 26.5625 34.4547 27.325 34.4547 28.3203C34.4547 29.5516 35.2172 30.0484 36.9844 30.8203L38.0094 31.2594C41.5062 32.7531 43.4688 34.2875 43.4688 37.7234C43.4688 41.4156 40.5578 43.4453 36.6609 43.4453L36.6594 43.4469Z" fill="black"/>
</svg>
