<svg width="50" height="50" viewBox="0 0 50 50" fill="none" xmlns="http://www.w3.org/2000/svg">
<path d="M41.9687 12.7021L26.79 3.59863C26.2448 3.2878 25.6281 3.12434 25.0005 3.12434C24.3729 3.12434 23.7561 3.2878 23.2109 3.59863L8.03124 12.7012C7.48421 13.0364 7.03287 13.507 6.72085 14.0676C6.40882 14.6282 6.24664 15.2598 6.24999 15.9014V34.082C6.24671 34.724 6.40888 35.3559 6.72088 35.917C7.03288 36.478 7.48417 36.9492 8.03124 37.2851L12.0117 39.6621L12.0342 39.6748C14.0439 40.7031 14.8135 40.7031 15.7051 40.7031C18.8437 40.7031 20.7939 38.6719 20.7939 35.4014V17.7734C20.7958 17.5534 20.7102 17.3415 20.5561 17.1845C20.4019 17.0274 20.1917 16.9379 19.9717 16.9355H17.7861C17.5661 16.9379 17.3559 17.0274 17.2017 17.1845C17.0476 17.3415 16.962 17.5534 16.9639 17.7734V35.4014C16.9718 35.6537 16.9144 35.9039 16.7972 36.1275C16.68 36.3511 16.507 36.5407 16.2949 36.6777C15.7187 37.0293 14.8818 36.9551 13.9375 36.4678L10.123 34.1719C10.1084 34.1619 10.0965 34.1485 10.0883 34.1328C10.0802 34.1171 10.076 34.0997 10.0762 34.082V16.1582C10.0768 16.1376 10.0823 16.1174 10.0924 16.0994C10.1024 16.0814 10.1166 16.0661 10.1338 16.0547L24.9619 6.97265C24.973 6.96714 24.9852 6.96428 24.9975 6.96428C25.0099 6.96428 25.0221 6.96714 25.0332 6.97265L39.8701 16.0547C39.887 16.067 39.9007 16.0832 39.91 16.1019C39.9194 16.1206 39.9241 16.1412 39.9238 16.1621V34.082C39.9242 34.1005 39.9204 34.1189 39.9128 34.1358C39.9052 34.1527 39.894 34.1677 39.8799 34.1797L25.0303 43.0322C25.005 43.041 24.9774 43.041 24.9521 43.0322L21.1601 40.7803C21.0476 40.7067 20.9175 40.6642 20.7832 40.6572C20.6489 40.6502 20.5151 40.6788 20.3955 40.7402L20.3623 40.7598C19.3154 41.3799 19.0342 41.541 18.0635 41.8945C17.9053 41.9521 17.5332 42.0898 17.501 42.458C17.4687 42.8262 17.8223 43.0879 18.1367 43.2705L23.2051 46.3828C23.7451 46.7063 24.3627 46.8774 24.9922 46.8779H25.0488C25.6626 46.8683 26.263 46.6976 26.79 46.3828L41.9687 37.2881C42.5155 36.9511 42.9665 36.4793 43.2784 35.9179C43.5904 35.3565 43.7527 34.7243 43.75 34.082V15.9014C43.7531 15.26 43.5908 14.6286 43.2788 14.0682C42.9668 13.5079 42.5156 13.0374 41.9687 12.7021Z" fill="black"/>
<path d="M30.0664 31.0596C26.4248 31.0596 25.6484 30.042 25.418 28.3994C25.392 28.2038 25.2967 28.0241 25.1494 27.8929C25.002 27.7617 24.8125 27.6878 24.6152 27.6846H22.6816C22.4637 27.6892 22.2565 27.7799 22.1053 27.937C21.9541 28.094 21.8713 28.3045 21.875 28.5225C21.875 29.9463 22.375 34.5938 30.0703 34.5938C32.4512 34.5938 34.4316 34.0371 35.7959 32.9834C37.1601 31.9297 37.8906 30.3965 37.8906 28.5693C37.8906 24.9023 35.498 23.8984 30.7861 23.2422C25.9961 22.5762 25.9961 22.2373 25.9961 21.4951C25.9961 20.9609 25.9961 19.71 29.459 19.71C31.9228 19.71 33.2422 20.0215 33.6641 21.6631C33.7014 21.8451 33.7998 22.0089 33.943 22.1273C34.0861 22.2458 34.2654 22.3118 34.4512 22.3145H36.3916C36.506 22.3133 36.6188 22.2878 36.7225 22.2397C36.8262 22.1915 36.9185 22.1218 36.9932 22.0352C37.1423 21.861 37.2168 21.635 37.2002 21.4062C36.9492 17.9346 34.4111 16.1738 29.4619 16.1738C24.9639 16.1738 22.2793 18.2002 22.2793 21.5938C22.2793 25.3145 25.0615 26.3662 29.2412 26.8018C34.124 27.3066 34.124 28.043 34.124 28.6934C34.1269 29.707 33.706 31.0596 30.0664 31.0596Z" fill="black"/>
</svg>
