<svg width="50" height="50" viewBox="0 0 50 50" fill="none" xmlns="http://www.w3.org/2000/svg">
<path d="M25 21.0625C27.1459 21.0625 28.8959 22.8125 28.8959 25C28.8959 27.0833 27.1459 28.8542 25 28.8542C22.8542 28.8542 21.1042 27.0833 21.1042 25C21.1042 22.8125 22.8542 21.0625 25 21.0625ZM15.3542 41.6667C16.6667 42.4583 19.5417 41.25 22.8542 38.125C21.7709 36.8958 20.7084 35.5625 19.7084 34.1667C18.0295 34.006 16.3605 33.7556 14.7084 33.4167C13.6459 37.875 14.0417 40.9375 15.3542 41.6667ZM16.8334 29.7083L16.2292 28.6458C16 29.25 15.7709 29.8542 15.625 30.4375C16.1875 30.5625 16.8125 30.6667 17.4584 30.7708L16.8334 29.7083ZM30.4584 28.125L32.1459 25L30.4584 21.875C29.8334 20.7708 29.1667 19.7917 28.5625 18.8125C27.4375 18.75 26.25 18.75 25 18.75C23.75 18.75 22.5625 18.75 21.4375 18.8125C20.8334 19.7917 20.1667 20.7708 19.5417 21.875L17.8542 25L19.5417 28.125C20.1667 29.2292 20.8334 30.2083 21.4375 31.1875C22.5625 31.25 23.75 31.25 25 31.25C26.25 31.25 27.4375 31.25 28.5625 31.1875C29.1667 30.2083 29.8334 29.2292 30.4584 28.125ZM25 14.125C24.6042 14.5833 24.1875 15.0625 23.7709 15.625H26.2292C25.8125 15.0625 25.3959 14.5833 25 14.125ZM25 35.875C25.3959 35.4167 25.8125 34.9375 26.2292 34.375H23.7709C24.1875 34.9375 24.6042 35.4167 25 35.875ZM34.625 8.33333C33.3334 7.54166 30.4584 8.74999 27.1459 11.875C28.2292 13.1042 29.2917 14.4375 30.2917 15.8333C32 16 33.6875 16.25 35.2917 16.5833C36.3542 12.125 35.9584 9.06249 34.625 8.33333ZM33.1667 20.2917L33.7709 21.3542C34 20.75 34.2292 20.1458 34.375 19.5625C33.8125 19.4375 33.1875 19.3333 32.5417 19.2292L33.1667 20.2917ZM36.1875 5.60416C39.25 7.35416 39.5834 11.9583 38.2917 17.3333C43.5834 18.8958 47.3959 21.4792 47.3959 25C47.3959 28.5208 43.5834 31.1042 38.2917 32.6667C39.5834 38.0417 39.25 42.6458 36.1875 44.3958C33.1459 46.1458 29 44.1458 25 40.3333C21 44.1458 16.8542 46.1458 13.7917 44.3958C10.75 42.6458 10.4167 38.0417 11.7084 32.6667C6.41669 31.1042 2.60419 28.5208 2.60419 25C2.60419 21.4792 6.41669 18.8958 11.7084 17.3333C10.4167 11.9583 10.75 7.35416 13.7917 5.60416C16.8542 3.85416 21 5.85416 25 9.66666C29 5.85416 33.1459 3.85416 36.1875 5.60416ZM35.5834 25C36.2917 26.5625 36.9167 28.125 37.4375 29.7083C41.8125 28.3958 44.2709 26.5208 44.2709 25C44.2709 23.4792 41.8125 21.6042 37.4375 20.2917C36.9167 21.875 36.2917 23.4375 35.5834 25ZM14.4167 25C13.7084 23.4375 13.0834 21.875 12.5625 20.2917C8.18752 21.6042 5.72919 23.4792 5.72919 25C5.72919 26.5208 8.18752 28.3958 12.5625 29.7083C13.0834 28.125 13.7084 26.5625 14.4167 25ZM33.1667 29.7083L32.5417 30.7708C33.1875 30.6667 33.8125 30.5625 34.375 30.4375C34.2292 29.8542 34 29.25 33.7709 28.6458L33.1667 29.7083ZM27.1459 38.125C30.4584 41.25 33.3334 42.4583 34.625 41.6667C35.9584 40.9375 36.3542 37.875 35.2917 33.4167C33.6875 33.75 32 34 30.2917 34.1667C29.2917 35.5625 28.2292 36.8958 27.1459 38.125ZM16.8334 20.2917L17.4584 19.2292C16.8125 19.3333 16.1875 19.4375 15.625 19.5625C15.7709 20.1458 16 20.75 16.2292 21.3542L16.8334 20.2917ZM22.8542 11.875C19.5417 8.74999 16.6667 7.54166 15.3542 8.33333C14.0417 9.06249 13.6459 12.125 14.7084 16.5833C16.3605 16.2444 18.0295 15.994 19.7084 15.8333C20.7084 14.4375 21.7709 13.1042 22.8542 11.875Z" fill="black"/>
</svg>
