<svg width="50" height="50" viewBox="0 0 50 50" fill="none" xmlns="http://www.w3.org/2000/svg">
<g clip-path="url(#clip0_3_21)">
<path d="M23.5812 34.6031C23.5578 34.65 23.5344 34.6875 23.5812 34.6031V34.6031ZM43.0437 27.8063C41.4719 27.8063 39.9219 28.1656 38.5125 28.8609C38.0515 27.9313 37.575 27.1188 37.4969 26.5094C37.4031 25.7984 37.3015 25.3766 37.4109 24.5328C37.5203 23.6891 38.0125 22.4938 38.0047 22.4078C37.9969 22.3219 37.8953 21.8922 36.8875 21.8844C35.8797 21.8766 35.0125 22.0797 34.9109 22.3453C34.7326 22.8306 34.5941 23.3297 34.4969 23.8375C34.3172 24.7516 32.4828 28.0172 31.4437 29.7203C31.1 29.0563 30.8109 28.4703 30.7484 28.0016C30.6547 27.2906 30.5531 26.8688 30.6625 26.025C30.7719 25.1813 31.264 23.9859 31.2562 23.9C31.2484 23.8141 31.1469 23.3844 30.1406 23.3766C29.1344 23.3688 28.2656 23.5719 28.164 23.8375C28.0625 24.1031 27.9531 24.7281 27.75 25.3297C27.5469 25.9313 25.1015 31.3688 24.4625 32.7828C24.1344 33.5016 23.8531 34.0797 23.65 34.4703C23.6187 34.5328 23.5953 34.5719 23.5797 34.6031C23.6031 34.5641 23.6187 34.525 23.6187 34.5406C23.4469 34.8766 23.3453 35.0641 23.3453 35.0641V35.0719C23.2125 35.3219 23.064 35.5484 22.9937 35.5484C22.9469 35.5484 22.8453 34.8922 23.0172 33.9938C23.3844 32.1031 24.2515 29.1656 24.2437 29.0641C24.2359 29.0094 24.4078 28.5016 23.6734 28.2281C22.9625 27.9703 22.7047 28.4 22.6422 28.4C22.5797 28.4 22.5328 28.5563 22.5328 28.5563C22.5328 28.5563 23.3219 25.2438 21.0172 25.2438C19.5797 25.2438 17.5797 26.8219 16.5969 28.2516C15.9797 28.5875 14.6437 29.3141 13.2375 30.0875L11.6203 30.9781C11.5812 30.9391 11.55 30.9 11.5109 30.8609C8.71405 27.8766 3.55155 25.7672 3.7703 21.7594C3.84842 20.2984 4.35624 16.4625 13.6984 11.8063C21.3547 7.99375 27.475 9.04063 28.5297 11.3688C30.0453 14.6891 25.2562 20.8688 17.3062 21.7594C14.275 22.0953 12.6828 20.9234 12.2844 20.4859C11.8703 20.025 11.8078 20.0016 11.6515 20.0875C11.3937 20.2281 11.5578 20.6344 11.6515 20.8766C11.8859 21.4938 12.8625 22.5875 14.5265 23.1344C15.9875 23.6109 19.5406 23.8766 23.8359 22.2125C28.6625 20.3531 32.4203 15.1734 31.3172 10.8375C30.1953 6.43125 22.889 4.98594 15.9812 7.43907C11.864 8.9 7.41248 11.1969 4.21092 14.1891C0.406235 17.7516 -0.201577 20.8531 0.0484229 22.15C0.939048 26.7516 7.28124 29.7516 9.81874 31.9703L9.46717 32.1656C8.19374 32.7984 3.35936 35.3297 2.14842 38.0016C0.781235 41.0328 2.37498 43.2047 3.4203 43.5016C6.68592 44.4078 10.0281 42.775 11.825 40.0953C13.6219 37.4156 13.4031 33.9156 12.575 32.3219C12.5672 32.2984 12.5515 32.2828 12.5437 32.2594C13.4812 31.7041 14.4266 31.1624 15.3797 30.6344C15.0672 31.4781 14.8406 32.4938 14.7234 33.9625C14.5828 35.6813 15.2937 37.9078 16.2156 38.7828C16.6219 39.1656 17.1125 39.1734 17.4187 39.1734C18.4969 39.1734 18.9812 38.2828 19.5203 37.2203C20.1844 35.9234 20.7703 34.4156 20.7703 34.4156C20.7703 34.4156 20.0359 38.4938 22.0437 38.4938C22.7781 38.4938 23.5125 37.5484 23.8406 37.0641V37.0719C23.8406 37.0719 23.8562 37.0406 23.8953 36.9781C23.9734 36.8609 24.0125 36.7906 24.0125 36.7906V36.7672C24.3094 36.2594 24.9578 35.0953 25.9344 33.1734C27.2 30.6891 28.4094 27.5875 28.4094 27.5875C28.5265 28.2688 28.689 28.9422 28.8937 29.6031C29.1125 30.3453 29.5734 31.1578 29.9406 31.9469C29.6437 32.3531 29.464 32.5875 29.464 32.5875C29.464 32.5938 29.4672 32.5984 29.4719 32.6031C29.2375 32.9156 28.9719 33.2516 28.6984 33.5797C27.7 34.7672 26.5109 36.1266 26.3547 36.5172C26.1672 36.9781 26.214 37.3219 26.5734 37.5875C26.839 37.7906 27.3078 37.8219 27.8 37.7828C28.6984 37.7203 29.3312 37.5016 29.6359 37.3609C30.1979 37.1596 30.729 36.8809 31.214 36.5328C32.1906 35.8141 32.7844 34.7828 32.7297 33.4234C32.6984 32.6734 32.4562 31.9234 32.1594 31.2203C32.2453 31.0953 32.339 30.9625 32.425 30.8297C33.4417 29.3127 34.3577 27.7307 35.1672 26.0938C35.2844 26.775 35.4453 27.4484 35.6515 28.1094C35.839 28.7422 36.2062 29.4375 36.5422 30.1172C35.089 31.2969 34.1906 32.6641 33.8797 33.5625C33.3015 35.2266 33.7547 35.9766 34.6062 36.1484C34.989 36.2266 35.5359 36.0469 35.9422 35.875C36.5453 35.6734 37.114 35.3813 37.6281 35.0078C38.6047 34.2891 39.55 33.2813 39.4859 31.9141C39.4625 31.2969 39.2906 30.6797 39.064 30.0859C40.2906 29.5703 41.8844 29.2891 43.9156 29.5234C48.2656 30.0313 49.1172 32.75 48.9531 33.8828C48.789 35.0156 47.875 35.6484 47.5703 35.8359C47.2656 36.0234 47.1719 36.0938 47.1953 36.2344C47.2344 36.4375 47.375 36.4297 47.6328 36.3828C47.9922 36.3203 49.914 35.4609 50 33.3594C50.125 30.7031 47.5703 27.7813 43.0469 27.8047L43.0437 27.8063ZM9.51405 39.1109C8.07655 40.6813 6.06248 41.275 5.1953 40.775C4.26561 40.2344 4.6328 37.9234 6.40467 36.25C7.4828 35.2344 8.87342 34.2969 9.7953 33.7188C10.0062 33.5938 10.3109 33.4063 10.6859 33.1797C10.7164 33.1602 10.7477 33.1419 10.7797 33.125C10.85 33.0781 10.9281 33.0391 11.0062 32.9922C11.6531 35.3672 11.0297 37.4609 9.51405 39.1094V39.1109ZM20.0109 31.9703C19.5109 33.1969 18.4578 36.3219 17.8156 36.1578C17.2687 36.0172 16.9328 33.6344 17.7062 31.2906C18.0969 30.1109 18.925 28.7047 19.4172 28.1578C20.2062 27.275 21.0734 26.9938 21.2765 27.3453C21.55 27.8063 20.3234 31.2047 20.0109 31.9703ZM28.6828 36.1109C28.4719 36.2203 28.2765 36.2906 28.1828 36.2359C28.1125 36.1969 28.2687 36.0484 28.2687 36.0484C28.2687 36.0484 29.3547 34.8844 29.7844 34.3531C30.0344 34.0406 30.3234 33.6734 30.6359 33.2672C30.6359 33.3063 30.6437 33.3453 30.6437 33.3922C30.6344 34.7906 29.2906 35.7359 28.6812 36.1109H28.6828ZM35.3703 34.5875C35.214 34.4781 35.2375 34.1109 35.7609 32.9703C35.964 32.525 36.4328 31.775 37.2453 31.0563C37.3375 31.3281 37.3875 31.6125 37.3937 31.9C37.3859 33.6578 36.1281 34.3141 35.3703 34.5875Z" fill="black"/>
</g>
<defs>
<clipPath id="clip0_3_21">
<rect width="50" height="50" fill="white"/>
</clipPath>
</defs>
</svg>
